<svg xmlns="http://www.w3.org/2000/svg" xmlns:xlink="http://www.w3.org/1999/xlink" width="512" zoomAndPan="magnify" viewBox="0 0 384 383.999986" height="512" preserveAspectRatio="xMidYMid meet" version="1.0"><defs><clipPath id="47706f24d6"><path d="M 33.15625 2.65625 L 275 2.65625 L 275 232 L 33.15625 232 Z M 33.15625 2.65625 " clip-rule="nonzero"/></clipPath><clipPath id="742db063b9"><path d="M 175.601562 0.804688 L 265 0.804688 L 265 89 L 175.601562 89 Z M 175.601562 0.804688 " clip-rule="nonzero"/></clipPath><clipPath id="d55f407fc3"><path d="M 1.054688 90.398438 L 44.851562 90.398438 L 44.851562 134.363281 L 1.054688 134.363281 Z M 1.054688 90.398438 " clip-rule="nonzero"/></clipPath><clipPath id="fb1107e416"><path d="M 37.769531 90.402344 C 35.957031 90.402344 34.144531 91.085938 32.769531 92.484375 L 3.136719 122.09375 C 0.363281 124.867188 0.363281 129.34375 3.136719 132.121094 C 4.507812 133.492188 6.320312 134.203125 8.132812 134.203125 C 9.972656 134.203125 11.785156 133.492188 13.15625 132.121094 L 42.769531 102.507812 C 45.542969 99.734375 45.542969 95.257812 42.769531 92.484375 C 41.398438 91.085938 39.582031 90.402344 37.769531 90.402344 Z M 37.769531 90.402344 " clip-rule="nonzero"/></clipPath><clipPath id="c4181bcdfd"><path d="M 0.0546875 0.398438 L 43.851562 0.398438 L 43.851562 44.238281 L 0.0546875 44.238281 Z M 0.0546875 0.398438 " clip-rule="nonzero"/></clipPath><clipPath id="a29d2bb65a"><path d="M 36.769531 0.402344 C 34.957031 0.402344 33.144531 1.085938 31.769531 2.484375 L 2.136719 32.09375 C -0.636719 34.867188 -0.636719 39.34375 2.136719 42.121094 C 3.507812 43.492188 5.320312 44.203125 7.132812 44.203125 C 8.972656 44.203125 10.785156 43.492188 12.15625 42.121094 L 41.769531 12.507812 C 44.542969 9.734375 44.542969 5.257812 41.769531 2.484375 C 40.398438 1.085938 38.582031 0.402344 36.769531 0.402344 Z M 36.769531 0.402344 " clip-rule="nonzero"/></clipPath><clipPath id="d367b56dca"><rect x="0" width="44" y="0" height="45"/></clipPath><clipPath id="02c1cd1a1f"><path d="M 18.238281 187.503906 L 81.296875 187.503906 L 81.296875 250.316406 L 18.238281 250.316406 Z M 18.238281 187.503906 " clip-rule="nonzero"/></clipPath><clipPath id="47f415c136"><path d="M 73.6875 187.503906 C 71.796875 187.503906 69.90625 188.21875 68.476562 189.683594 L 20.648438 237.476562 C 17.757812 240.335938 17.757812 245.035156 20.648438 247.894531 C 22.113281 249.359375 24.003906 250.074219 25.894531 250.074219 C 27.785156 250.074219 29.675781 249.359375 31.105469 247.894531 L 78.898438 200.101562 C 81.792969 197.242188 81.792969 192.570312 78.898438 189.683594 C 77.46875 188.21875 75.578125 187.503906 73.6875 187.503906 Z M 73.6875 187.503906 " clip-rule="nonzero"/></clipPath><clipPath id="1fe57f4546"><path d="M 0.398438 0.503906 L 63.296875 0.503906 L 63.296875 63.160156 L 0.398438 63.160156 Z M 0.398438 0.503906 " clip-rule="nonzero"/></clipPath><clipPath id="1c364a7c87"><path d="M 55.6875 0.503906 C 53.796875 0.503906 51.90625 1.21875 50.476562 2.683594 L 2.648438 50.476562 C -0.242188 53.335938 -0.242188 58.035156 2.648438 60.894531 C 4.113281 62.359375 6.003906 63.074219 7.894531 63.074219 C 9.785156 63.074219 11.675781 62.359375 13.105469 60.894531 L 60.898438 13.101562 C 63.792969 10.242188 63.792969 5.570312 60.898438 2.683594 C 59.46875 1.21875 57.578125 0.503906 55.6875 0.503906 Z M 55.6875 0.503906 " clip-rule="nonzero"/></clipPath><clipPath id="fcb5983e22"><rect x="0" width="64" y="0" height="64"/></clipPath><clipPath id="51d4daea66"><path d="M 5.277344 137.464844 L 61.800781 137.464844 L 61.800781 193.992188 L 5.277344 193.992188 Z M 5.277344 137.464844 " clip-rule="nonzero"/></clipPath><clipPath id="31be345724"><path d="M 54.058594 137.46875 C 52.128906 137.46875 50.203125 138.199219 48.746094 139.683594 L 7.492188 180.914062 C 4.542969 183.859375 4.542969 188.621094 7.492188 191.566406 C 8.949219 193.058594 10.878906 193.789062 12.804688 193.789062 C 14.730469 193.789062 16.660156 193.058594 18.144531 191.566406 L 59.375 150.339844 C 62.324219 147.390625 62.324219 142.632812 59.375 139.683594 C 57.910156 138.199219 55.984375 137.46875 54.058594 137.46875 Z M 54.058594 137.46875 " clip-rule="nonzero"/></clipPath><clipPath id="9a5766ef6b"><path d="M 0.277344 0.464844 L 56.601562 0.464844 L 56.601562 56.992188 L 0.277344 56.992188 Z M 0.277344 0.464844 " clip-rule="nonzero"/></clipPath><clipPath id="cf683d17b3"><path d="M 49.058594 0.46875 C 47.128906 0.46875 45.203125 1.199219 43.746094 2.683594 L 2.492188 43.914062 C -0.457031 46.859375 -0.457031 51.621094 2.492188 54.566406 C 3.949219 56.058594 5.878906 56.789062 7.804688 56.789062 C 9.730469 56.789062 11.660156 56.058594 13.144531 54.566406 L 54.375 13.339844 C 57.324219 10.390625 57.324219 5.632812 54.375 2.683594 C 52.910156 1.199219 50.984375 0.46875 49.058594 0.46875 Z M 49.058594 0.46875 " clip-rule="nonzero"/></clipPath><clipPath id="bcfe77992a"><rect x="0" width="57" y="0" height="57"/></clipPath><clipPath id="c647a0546b"><path d="M 134.179688 223.214844 L 178.15625 223.214844 L 178.15625 266.519531 L 134.179688 266.519531 Z M 134.179688 223.214844 " clip-rule="nonzero"/></clipPath><clipPath id="eaac8dae9f"><path d="M 171.070312 223.382812 C 169.257812 223.382812 167.445312 224.074219 166.074219 225.472656 L 136.429688 255.089844 C 133.652344 257.867188 133.652344 262.34375 136.429688 265.121094 C 137.035156 265.71875 137.722656 266.1875 138.433594 266.519531 L 144.453125 266.519531 C 145.164062 266.1875 145.851562 265.71875 146.457031 265.121094 L 176.078125 235.472656 C 178.847656 232.726562 178.847656 228.246094 176.078125 225.472656 C 174.699219 224.074219 172.886719 223.382812 171.070312 223.382812 Z M 171.070312 223.382812 " clip-rule="nonzero"/></clipPath><clipPath id="044635e045"><path d="M 0.320312 0.28125 L 44.15625 0.28125 L 44.15625 43.519531 L 0.320312 43.519531 Z M 0.320312 0.28125 " clip-rule="nonzero"/></clipPath><clipPath id="d95e6d352c"><path d="M 37.070312 0.382812 C 35.257812 0.382812 33.445312 1.074219 32.074219 2.472656 L 2.429688 32.089844 C -0.347656 34.867188 -0.347656 39.34375 2.429688 42.121094 C 3.035156 42.71875 3.722656 43.1875 4.433594 43.519531 L 10.453125 43.519531 C 11.164062 43.1875 11.851562 42.71875 12.457031 42.121094 L 42.078125 12.472656 C 44.847656 9.726562 44.847656 5.246094 42.078125 2.472656 C 40.699219 1.074219 38.886719 0.382812 37.070312 0.382812 Z M 37.070312 0.382812 " clip-rule="nonzero"/></clipPath><clipPath id="53c472b0a7"><rect x="0" width="45" y="0" height="44"/></clipPath><clipPath id="08d3c9508e"><path d="M 74.777344 206.964844 L 131.300781 206.964844 L 131.300781 263.492188 L 74.777344 263.492188 Z M 74.777344 206.964844 " clip-rule="nonzero"/></clipPath><clipPath id="7a64cd3098"><path d="M 123.558594 206.96875 C 121.632812 206.96875 119.703125 207.695312 118.246094 209.183594 L 76.988281 250.414062 C 74.042969 253.363281 74.042969 258.121094 76.988281 261.070312 C 78.453125 262.558594 80.378906 263.285156 82.304688 263.285156 C 84.234375 263.285156 86.160156 262.558594 87.644531 261.070312 L 128.878906 219.8125 C 131.820312 216.890625 131.820312 212.132812 128.878906 209.183594 C 127.414062 207.695312 125.484375 206.96875 123.558594 206.96875 Z M 123.558594 206.96875 " clip-rule="nonzero"/></clipPath><clipPath id="b07d43b7eb"><path d="M 0.777344 0.964844 L 57.199219 0.964844 L 57.199219 57.359375 L 0.777344 57.359375 Z M 0.777344 0.964844 " clip-rule="nonzero"/></clipPath><clipPath id="3a4a3f76f1"><path d="M 49.558594 0.96875 C 47.632812 0.96875 45.703125 1.695312 44.246094 3.183594 L 2.988281 44.414062 C 0.0429688 47.363281 0.0429688 52.121094 2.988281 55.070312 C 4.453125 56.558594 6.378906 57.285156 8.304688 57.285156 C 10.234375 57.285156 12.160156 56.558594 13.644531 55.070312 L 54.878906 13.8125 C 57.820312 10.890625 57.820312 6.132812 54.878906 3.183594 C 53.414062 1.695312 51.484375 0.96875 49.558594 0.96875 Z M 49.558594 0.96875 " clip-rule="nonzero"/></clipPath><clipPath id="4b2f7b634d"><rect x="0" width="58" y="0" height="58"/></clipPath><clipPath id="0a1bb9babe"><rect x="0" width="283" y="0" height="267"/></clipPath></defs><rect x="-38.4" width="460.8" fill="#ffffff" y="-38.399999" height="460.799983" fill-opacity="1"/><rect x="-38.4" width="460.8" fill="#18083a" y="-38.399999" height="460.799983" fill-opacity="1"/><g transform="matrix(1, 0, 0, 1, 56, 58)"><g clip-path="url(#0a1bb9babe)"><g clip-path="url(#47706f24d6)"><path fill="#e6ba31" d="M 181.359375 2.675781 L 161.761719 2.675781 L 142.113281 21.59375 L 111.347656 21.59375 C 96.527344 21.59375 82.597656 27.148438 72.125 37.230469 L 35.1875 72.789062 C 33.175781 74.726562 32.609375 77.621094 33.710938 80.15625 C 34.8125 82.582031 37.335938 84.1875 40.074219 84.1875 L 40.261719 84.1875 L 99.105469 82.816406 C 96.289062 97.675781 97.976562 113.105469 104.582031 126.984375 C 84.554688 146.777344 69.148438 172.90625 81.710938 184.976562 C 84.851562 188.023438 88.90625 189.34375 93.574219 189.34375 C 107.480469 189.34375 126.59375 177.351562 142.003906 162.878906 C 151.992188 167.246094 162.703125 169.519531 173.492188 169.519531 C 178.273438 169.519531 183.078125 169.054688 187.828125 168.226562 L 186.40625 224.902344 C 186.351562 227.617188 188.015625 230.097656 190.621094 231.183594 C 191.507812 231.542969 192.417969 231.726562 193.332031 231.726562 C 195.132812 231.726562 196.929688 231.054688 198.246094 229.761719 L 235.183594 194.199219 C 245.652344 184.121094 251.425781 170.710938 251.425781 156.445312 L 251.425781 126.800781 L 274.621094 104.472656 L 274.621094 85.582031 L 221.332031 136.933594 C 218.835938 139.335938 216.152344 141.53125 213.359375 143.496094 L 213.304688 143.523438 C 211.558594 144.503906 209.359375 144.96875 206.835938 144.96875 C 197.492188 144.96875 183.507812 138.535156 168.824219 127.320312 C 174.835938 113.390625 171.722656 105.921875 167.777344 102.121094 C 165.441406 99.847656 161.707031 97.855469 156.042969 97.855469 C 152.179688 97.855469 147.425781 98.789062 141.574219 101.140625 C 127.589844 84.210938 120.609375 67.957031 123.882812 59.480469 C 126.164062 56.351562 128.714844 53.355469 131.589844 50.589844 L 149.871094 32.992188 L 149.871094 32.964844 L 181.359375 2.675781 M 57.226562 70.4375 L 81.925781 46.660156 C 89.789062 39.117188 100.234375 34.929688 111.347656 34.929688 L 128.261719 34.929688 L 121.789062 41.15625 C 113.28125 49.375 107 59.066406 102.972656 69.378906 L 57.226562 70.4375 M 115.402344 117.292969 C 111.132812 106.074219 110.515625 93.851562 113.332031 82.195312 C 117.414062 91.785156 123.75 100.828125 129.117188 107.523438 C 124.582031 110.3125 119.964844 113.570312 115.402344 117.292969 M 93.496094 176.058594 C 92.503906 176.058594 91.832031 175.878906 91.507812 175.542969 C 89.199219 173.34375 94.003906 155.980469 115.832031 134.96875 C 125.46875 125.691406 135.804688 118.324219 144.875 114.214844 C 150.246094 111.8125 153.921875 111.167969 155.992188 111.167969 C 157.117188 111.167969 157.761719 111.347656 157.976562 111.554688 C 158.59375 112.148438 159.078125 116.207031 155.210938 124.164062 C 150.945312 132.925781 143.292969 142.851562 133.65625 152.128906 C 115.023438 170.0625 99.160156 176.058594 93.496094 176.058594 M 173.601562 156.183594 C 166.273438 156.183594 158.96875 154.972656 152.019531 152.542969 C 155.882812 148.121094 159.292969 143.675781 162.191406 139.308594 C 169.253906 144.53125 178.730469 150.578125 188.769531 154.480469 C 183.777344 155.617188 178.703125 156.183594 173.601562 156.183594 M 200.6875 208.542969 L 201.789062 164.480469 C 212.527344 160.605469 222.621094 154.558594 231.128906 146.363281 L 237.574219 140.164062 L 237.574219 156.445312 C 237.574219 167.144531 233.222656 177.195312 225.386719 184.769531 Z M 200.6875 208.542969 " fill-opacity="1" fill-rule="nonzero"/></g><g clip-path="url(#742db063b9)"><path fill="#e6ba31" d="M 231.9375 0.804688 L 208.574219 0.804688 C 201.128906 2.820312 194.292969 6.75 188.683594 12.359375 C 180.242188 20.773438 175.601562 31.996094 175.601562 43.929688 C 175.601562 55.839844 180.242188 67.0625 188.683594 75.503906 C 197.125 83.921875 208.320312 88.5625 220.257812 88.5625 C 232.191406 88.5625 243.414062 83.921875 251.828125 75.503906 C 260.269531 67.0625 264.910156 55.839844 264.910156 43.929688 C 264.910156 31.996094 260.269531 20.773438 251.828125 12.359375 C 246.21875 6.75 239.382812 2.820312 231.9375 0.804688 M 220.257812 75.425781 C 211.839844 75.425781 203.933594 72.136719 197.992188 66.195312 C 192.050781 60.253906 188.761719 52.347656 188.761719 43.929688 C 188.761719 35.515625 192.050781 27.609375 197.992188 21.667969 C 203.933594 15.699219 211.839844 12.433594 220.257812 12.433594 C 228.671875 12.433594 236.578125 15.726562 242.519531 21.667969 C 248.488281 27.609375 251.753906 35.515625 251.753906 43.929688 C 251.753906 52.347656 248.488281 60.253906 242.519531 66.195312 C 236.578125 72.136719 228.671875 75.425781 220.257812 75.425781 " fill-opacity="1" fill-rule="nonzero"/></g><g clip-path="url(#d55f407fc3)"><g clip-path="url(#fb1107e416)"><g transform="matrix(1, 0, 0, 1, 1, 90)"><g clip-path="url(#d367b56dca)"><g clip-path="url(#c4181bcdfd)"><g clip-path="url(#a29d2bb65a)"><path fill="#e2b740" d="M 0.0546875 0.398438 L 43.851562 0.398438 L 43.851562 44.195312 L 0.0546875 44.195312 Z M 0.0546875 0.398438 " fill-opacity="1" fill-rule="nonzero"/></g></g></g></g></g></g><g clip-path="url(#02c1cd1a1f)"><g clip-path="url(#47f415c136)"><g transform="matrix(1, 0, 0, 1, 18, 187)"><g clip-path="url(#fcb5983e22)"><g clip-path="url(#1fe57f4546)"><g clip-path="url(#1c364a7c87)"><path fill="#e2b740" d="M 0.484375 0.503906 L 63.054688 0.503906 L 63.054688 63.074219 L 0.484375 63.074219 Z M 0.484375 0.503906 " fill-opacity="1" fill-rule="nonzero"/></g></g></g></g></g></g><g clip-path="url(#51d4daea66)"><g clip-path="url(#31be345724)"><g transform="matrix(1, 0, 0, 1, 5, 137)"><g clip-path="url(#bcfe77992a)"><g clip-path="url(#9a5766ef6b)"><g clip-path="url(#cf683d17b3)"><path fill="#e2b740" d="M 0.277344 0.464844 L 56.582031 0.464844 L 56.582031 56.769531 L 0.277344 56.769531 Z M 0.277344 0.464844 " fill-opacity="1" fill-rule="nonzero"/></g></g></g></g></g></g><g clip-path="url(#c647a0546b)"><g clip-path="url(#eaac8dae9f)"><g transform="matrix(1, 0, 0, 1, 134, 223)"><g clip-path="url(#53c472b0a7)"><g clip-path="url(#044635e045)"><g clip-path="url(#d95e6d352c)"><path fill="#e2b740" d="M 0.347656 0.386719 L 44.15625 0.386719 L 44.15625 43.519531 L 0.347656 43.519531 Z M 0.347656 0.386719 " fill-opacity="1" fill-rule="nonzero"/></g></g></g></g></g></g><g clip-path="url(#08d3c9508e)"><g clip-path="url(#7a64cd3098)"><g transform="matrix(1, 0, 0, 1, 74, 206)"><g clip-path="url(#4b2f7b634d)"><g clip-path="url(#b07d43b7eb)"><g clip-path="url(#3a4a3f76f1)"><path fill="#e2b740" d="M 0.777344 0.964844 L 57.082031 0.964844 L 57.082031 57.269531 L 0.777344 57.269531 Z M 0.777344 0.964844 " fill-opacity="1" fill-rule="nonzero"/></g></g></g></g></g></g></g></g></svg>